<svg width="151" height="150" fill="none" xmlns="http://www.w3.org/2000/svg"><path d="M84.5 86c-26.148-4.614-35.795 11.247-37.39 20.625-.1.587.365 1.1.96 1.1h46.315L84.499 86zm-9-11c8.975 0 16.25-7.275 16.25-16.25S84.475 42.5 75.5 42.5s-16.25 7.275-16.25 16.25S66.525 75 75.5 75z" fill="#A9845B"/><path d="M108 94.5c0 1.04-.13 2.047-.39 3.022a12.136 12.136 0 01-1.495 3.673A12.902 12.902 0 0195 107.5c-3.347 0-6.37-1.268-8.645-3.348a11.97 11.97 0 01-2.47-2.957A12.743 12.743 0 0182 94.5c0-3.51 1.397-6.727 3.672-9.067A12.983 12.983 0 0195 81.5c3.835 0 7.312 1.658 9.652 4.323A12.949 12.949 0 01108 94.5z" fill="#F5F2EC" stroke="#A9845B" stroke-width="1.5" stroke-miterlimit="10" stroke-linecap="round" stroke-linejoin="round"/><path d="M99.843 94.435h-9.685" stroke="#A9845B" stroke-miterlimit="10" stroke-linecap="round" stroke-linejoin="round"/></svg>