<svg width="151" height="150" fill="none" xmlns="http://www.w3.org/2000/svg"><path clip-rule="evenodd" d="M86.64 40c-8.922 8.106-7.42 8.916-7.685 15.13-.165 3.884-1.747 5.446-2.908 6.071-1.779.957-4.777-.75-4.777-1.929-2.642 6.118-1.343 13.735 3.533 18.284 1.198 1.116 2.612 2.03 4.157 2.73.839-5.366 4.493-9.404 8.873-9.404 4.097 0 7.557 3.531 8.675 8.377a13.7 13.7 0 003.386-3.13c5.194-6.781 2.084-16.552-4.598-23.43C86.11 43.244 86.64 40 86.64 40z" stroke="#A9845B" stroke-linejoin="round"/><path fill-rule="evenodd" clip-rule="evenodd" d="M75.767 46C61.211 58.934 63.661 60.227 63.23 70.143c-.27 6.199-2.85 8.692-4.746 9.689-2.901 1.526-7.793-1.199-7.793-3.078-4.31 9.761-2.191 21.917 5.765 29.175 1.953 1.782 4.26 3.24 6.782 4.357 1.368-8.562 7.33-15.007 14.477-15.007 6.684 0 12.33 5.636 14.153 13.369 2.088-1.341 3.964-2.999 5.526-4.995 8.474-10.822 3.4-26.413-7.502-37.387C74.903 51.176 75.767 46 75.767 46z" fill="#A9845B"/></svg>