<svg width="28" height="26" fill="none" xmlns="http://www.w3.org/2000/svg"><path d="M10.708 17.91l.397-.305-.397.304zm0-9.82l.397.305-.397-.304zm16.515 4.41H.777v1h26.446v-1zM.777 13v.5h.012a3.751 3.751 0 01.234.009c.166.009.411.027.718.064.615.074 1.475.222 2.448.519 1.95.594 4.328 1.775 6.122 4.12l.794-.607c-1.96-2.563-4.546-3.836-6.624-4.47a15.357 15.357 0 00-2.62-.555A12.105 12.105 0 00.8 12.5H.778v.5zm9.534 5.213c1.01 1.321 1.594 3.016 1.922 4.408a17.758 17.758 0 01.377 2.236 8.41 8.41 0 01.014.166v.009l.5-.032.498-.032v-.015l-.004-.04a15.074 15.074 0 00-.075-.691 18.715 18.715 0 00-.336-1.83c-.343-1.452-.968-3.303-2.102-4.787l-.794.608zM.777 13v.5h.025l.059-.001c.05-.002.123-.004.216-.01.186-.01.453-.03.784-.07.66-.079 1.58-.237 2.62-.554 2.078-.634 4.664-1.908 6.624-4.47l-.794-.608c-1.794 2.346-4.173 3.527-6.122 4.121-.973.297-1.833.445-2.448.519a11.199 11.199 0 01-.952.073H.777v.5zm10.328-4.605c1.134-1.484 1.759-3.335 2.102-4.787a18.718 18.718 0 00.398-2.371l.013-.15.003-.04.001-.01v-.005L13.123 1l-.499-.032v.009a3.36 3.36 0 01-.014.166 17.752 17.752 0 01-.376 2.236c-.33 1.392-.913 3.087-1.923 4.408l.794.608z" fill="#1B1B1B"/></svg>