<svg width="151" height="150" fill="none" xmlns="http://www.w3.org/2000/svg"><path fill-rule="evenodd" clip-rule="evenodd" d="M76.394 40.801a22.205 22.205 0 00-5.156 3.353c-2.04 1.778-3.678 3.897-4.79 6.247a16.835 16.835 0 00-1.635 7.221c0 3.06.84 5.88 2.316 8.296l.001.002c3.6 5.92 11.064 9.77 19.794 9.77s16.195-3.85 19.794-9.77l.001-.002a15.794 15.794 0 002.317-8.296c0-.327-.01-.653-.029-.977-.283-4.854-2.669-9.244-6.397-12.526a21.731 21.731 0 00-1.572-1.237C97.21 40.15 92.31 38.5 86.924 38.5c-3.826 0-7.409.836-10.53 2.301zm32.642 23.93c-.304.68-.65 1.337-1.037 1.969-3.927 6.46-11.938 10.49-21.075 10.49-9.136 0-17.147-4.03-21.075-10.49a17.306 17.306 0 01-1.037-1.97v10.478c0 1.302.153 2.56.443 3.767 1.06 4.403 3.964 8.103 8.036 10.635a21.683 21.683 0 00.592.356c3.636 2.104 8.132 3.309 13.041 3.309 5.413 0 10.322-1.465 14.132-3.984a20.9 20.9 0 00.994-.7c4.317-3.236 6.986-7.93 6.986-13.383V64.73zM72.159 41.528c-5.379 3.764-8.847 9.548-8.847 16.093v30.601c0 11.483 10.673 20.622 23.612 20.622 12.939 0 23.612-9.14 23.612-20.622v-30.6c0-5.732-2.684-10.887-6.937-14.632l-.005-.004C99.304 39.277 93.43 37 86.924 37c-5.588 0-10.711 1.68-14.765 4.529zm36.877 40.809c-1.592 3.567-4.364 6.53-7.896 8.669a20.363 20.363 0 01-.427.252c-3.9 2.25-8.674 3.516-13.789 3.516-6.259 0-12.01-1.897-16.27-5.17-2.555-1.965-4.573-4.425-5.841-7.267v5.884c0 10.464 9.797 19.122 22.111 19.122 12.315 0 22.112-8.658 22.112-19.122v-5.884z" fill="#A9845B"/><ellipse cx="64.5" cy="87.624" rx="25" ry="25.5" fill="#A9845B"/><path d="M69.351 87.991h-10.36m5.179-5.181v10.362" stroke="#F5F2EC" stroke-width="1.5" stroke-miterlimit="10" stroke-linecap="round" stroke-linejoin="round"/></svg>