<svg width="28" height="26" fill="none" xmlns="http://www.w3.org/2000/svg"><path d="M17.292 8.09l-.397.305.397-.304zm0 9.82l-.397-.305.397.304zM.777 13.5h26.446v-1H.777v1zm26.446-.5v-.5h-.012a3.72 3.72 0 01-.234-.009 11.114 11.114 0 01-.718-.064 14.373 14.373 0 01-2.448-.519c-1.95-.594-4.328-1.775-6.122-4.12l-.794.607c1.96 2.563 4.546 3.836 6.624 4.47 1.04.317 1.96.475 2.62.555a12.104 12.104 0 001.06.08h.023V13zm-9.534-5.213c-1.01-1.321-1.593-3.016-1.922-4.408a17.752 17.752 0 01-.377-2.236 8.428 8.428 0 01-.014-.166V.968l-.5.032-.498.032v.016l.004.04.013.149a18.718 18.718 0 00.399 2.372c.342 1.45.967 3.302 2.1 4.786l.795-.608zM27.223 13v-.5h-.025l-.059.001a12.104 12.104 0 00-1 .079c-.66.08-1.58.238-2.62.555-2.078.634-4.664 1.908-6.624 4.47l.794.608c1.794-2.346 4.173-3.527 6.122-4.121a14.373 14.373 0 012.448-.519 11.202 11.202 0 01.952-.073h.012V13zm-10.328 4.605c-1.134 1.484-1.759 3.335-2.102 4.787a18.715 18.715 0 00-.398 2.371l-.013.15-.003.04-.001.01v.005l.499.032.499.032v-.009a3.357 3.357 0 01.014-.166 17.758 17.758 0 01.376-2.236c.33-1.392.913-3.087 1.923-4.408l-.794-.608z" fill="#1B1B1B"/></svg>