<svg width="54" height="54" fill="none" xmlns="http://www.w3.org/2000/svg"><rect opacity=".1" width="54" height="54" rx="27" transform="matrix(-1 0 0 1 54 0)" fill="#909595"/><path d="M14.471 25.71l14.296-5.936c1.412-.619 6.197-2.597 6.197-2.597s2.21-.866 2.025 1.236c-.061.866-.552 3.896-1.043 7.173l-1.534 9.709s-.123 1.422-1.166 1.67c-1.043.247-2.76-.866-3.067-1.114-.246-.185-4.602-2.968-6.197-4.328-.43-.371-.92-1.113.06-1.98 2.21-2.04 4.848-4.575 6.443-6.183.737-.742 1.473-2.473-1.595-.37l-8.651 5.874s-.982.618-2.823.062c-1.84-.557-3.988-1.299-3.988-1.299s-1.472-.927 1.043-1.917z" fill="#F5F2EC"/></svg>