<svg width="151" height="150" fill="none" xmlns="http://www.w3.org/2000/svg"><path d="M86.333 80.153h9.182a.4.4 0 00.398-.4v-3.622a16.45 16.45 0 002.477-1.023l2.561 2.556a.398.398 0 00.565 0l6.494-6.493a.399.399 0 000-.565l-2.557-2.561a16.3 16.3 0 001.022-2.477h3.626a.398.398 0 00.399-.4v-9.18a.4.4 0 00-.399-.4h-3.624a16.416 16.416 0 00-1.023-2.477l2.557-2.562a.399.399 0 000-.565l-6.494-6.493a.397.397 0 00-.564 0l-2.561 2.557a16.324 16.324 0 00-2.477-1.023V41.4a.4.4 0 00-.4-.4H86.33a.4.4 0 00-.4.4v3.626a16.32 16.32 0 00-2.476 1.023l-2.557-2.56a.4.4 0 00-.565 0l-6.494 6.492a.4.4 0 000 .565l2.557 2.562c-.408.796-.75 1.625-1.023 2.477h-3.625a.4.4 0 00-.4.4v9.18a.4.4 0 00.4.4h3.632c.272.852.614 1.68 1.022 2.477l-2.56 2.561a.4.4 0 000 .565l6.493 6.493a.4.4 0 00.565 0l2.557-2.557a16.31 16.31 0 002.477 1.024v3.625a.4.4 0 00.4.4z" stroke="#A9845B"/><path d="M63.659 108.627h14.19a.618.618 0 00.616-.617v-5.598a25.11 25.11 0 003.828-1.582l3.958 3.952a.617.617 0 00.873 0l10.035-10.035a.617.617 0 000-.873l-3.951-3.959a25.15 25.15 0 001.58-3.828h5.603a.618.618 0 00.617-.617V71.28a.62.62 0 00-.617-.617h-5.6a25.303 25.303 0 00-1.58-3.829l3.95-3.958a.617.617 0 000-.873L87.127 51.969a.617.617 0 00-.873 0l-3.958 3.951a25.22 25.22 0 00-3.828-1.581v-5.603a.617.617 0 00-.617-.617H63.655a.617.617 0 00-.617.617v5.604a25.21 25.21 0 00-3.828 1.582l-3.952-3.958a.618.618 0 00-.873 0L44.349 61.999a.617.617 0 000 .873l3.952 3.959a25.304 25.304 0 00-1.581 3.828h-5.603a.617.617 0 00-.617.617v14.189a.618.618 0 00.617.617h5.613c.421 1.317.95 2.598 1.58 3.828l-3.957 3.96a.617.617 0 000 .872l10.035 10.035a.617.617 0 00.874 0l3.951-3.952a25.11 25.11 0 003.828 1.582v5.603a.618.618 0 00.618.617z" fill="#A9845B"/><circle cx="71.18" cy="78.799" r="7.67" fill="#F5F2EC"/></svg>