<svg width="55" height="54" fill="none" xmlns="http://www.w3.org/2000/svg"><rect opacity=".1" width="54" height="54" rx="27" transform="matrix(-1 0 0 1 54.5 0)" fill="#909595"/><path fill-rule="evenodd" clip-rule="evenodd" d="M34.223 29.542c-.318-.173-1.892-1.014-2.186-1.133-.293-.118-.51-.179-.74.134-.23.316-.882 1.02-1.078 1.227-.199.21-.389.228-.71.055-.318-.173-1.356-.556-2.559-1.701-.937-.893-1.549-1.974-1.726-2.305-.178-.332 0-.499.168-.654.153-.14.34-.367.511-.55.169-.182.23-.315.346-.525.116-.212.07-.4-.006-.568-.076-.164-.667-1.78-.912-2.436-.248-.656-.524-.559-.713-.568-.19-.006-.407-.042-.625-.048-.217-.01-.575.06-.884.37-.313.313-1.182 1.063-1.243 2.655-.061 1.591 1.05 3.17 1.203 3.393.156.221 2.118 3.669 5.381 5.087 3.263 1.419 3.281.987 3.878.954.6-.03 1.956-.71 2.26-1.455.3-.744.324-1.391.247-1.53-.076-.137-.29-.229-.609-.402h-.003zM28.239 14c-7.05 0-12.765 5.67-12.765 12.666 0 2.393.67 4.632 1.83 6.54L15 40l7.068-2.245a12.792 12.792 0 006.168 1.577C35.286 39.332 41 33.66 41 26.666S35.285 14 28.236 14h.003z" fill="#F5F2EC"/></svg>