<svg width="147" height="147" fill="none" xmlns="http://www.w3.org/2000/svg"><path d="M53.101 84.756c8.5 0 17.07-.52 23.663-3.477l-.878 4.365h-38.68v-1.11L69.29 33.028h-8.496c-13.626 0-16.632 1.036-20.511 3.108l.218-3.996h36.115v1.334L44.383 84.756h8.718z" fill="#373737"/><path d="M89.561 118.254V65.637h-4.908c-9.522 0-12.964 1.85-15.163 3.108l.22-3.996h45.932l.219 3.996c-2.197-1.258-5.565-3.108-15.092-3.108h-4.98v52.617h-6.228z" fill="#373737"/><path d="M73.429 2.546c-39.083 0-70.884 31.797-70.884 70.88 0 39.086 31.8 70.884 70.884 70.884 39.083 0 70.883-31.798 70.883-70.884 0-39.083-31.8-70.88-70.883-70.88zm0 144.309C32.94 146.855 0 113.914 0 73.426S32.94 0 73.429 0c40.488 0 73.428 32.938 73.428 73.426s-32.94 73.429-73.428 73.429z" fill="#373737"/></svg>