<svg width="119" height="122" fill="none" xmlns="http://www.w3.org/2000/svg"><path d="M117.974 61c0 33.137-26.18 60-58.474 60-32.295 0-58.475-26.863-58.475-60S27.205 1 59.5 1s58.474 26.863 58.474 60z" fill="#F4F1EB" stroke="#A9845B" stroke-width="1.333" stroke-miterlimit="10"/><path d="M72.571 98.273V54.52h-3.977c-7.718 0-10.509 1.54-12.29 2.585l.179-3.323h37.224l.178 3.323c-1.781-1.046-4.512-2.585-12.23-2.585h-4.037v43.753h-5.047z" fill="#A9845B"/><path d="M43.031 70.422c6.887 0 13.834-.43 19.177-2.892l-.712 3.63H30.148v-.923l26.004-42.83h-6.886c-11.044 0-13.478.862-16.624 2.585l.178-3.323h29.268v1.108L35.966 70.422h7.065z" fill="#A9845B"/></svg>