<?xml version="1.0" encoding="utf-8"?><svg viewBox="0 0 151 150" xmlns="http://www.w3.org/2000/svg" xmlns:xlink="http://www.w3.org/1999/xlink"><style>:root>svg{display:none}:root>svg:target{display:block}</style><svg fill="none" viewBox="0 0 151 150" id="build" xmlns="http://www.w3.org/2000/svg"><path d="M99.555 67.51h4.197a1 1 0 011 1v14.633a1 1 0 01-1 1H72.488a1 1 0 00-1 1v5.236" stroke="#A9845B" stroke-width="1.5" stroke-linecap="round" stroke-linejoin="round"/><rect x="66.289" y="90.379" width="10.395" height="27.027" rx="1" fill="#A9845B"/><rect x="45.5" y="57.116" width="54.053" height="20.79" rx="2" fill="#A9845B"/><path d="M53.92 33v23.572M72.8 33v23.572M63.36 33v23.572M82.246 33v23.572M91.69 33v23.572" stroke="#A9845B" stroke-width="1.5" stroke-linecap="round" stroke-linejoin="round"/></svg><svg fill="none" viewBox="0 0 151 150" id="defence" xmlns="http://www.w3.org/2000/svg"><path d="M101.045 46.083v39.874c0 .851-.326 1.67-.911 2.289l-14.289 15.12a3.33 3.33 0 01-2.422 1.044h-30.84a3.333 3.333 0 01-3.333-3.333V46.083a3.333 3.333 0 013.333-3.333h45.128a3.334 3.334 0 013.334 3.333z" fill="#A9845B"/><circle cx="92.5" cy="96" r="14.5" fill="#F5F2EC" stroke="#A9845B"/><path d="M86.5 95.98l4.125 4.02 8.875-8" stroke="#A9845B" stroke-width="1.501" stroke-linecap="round" stroke-linejoin="round"/></svg><svg fill="none" viewBox="0 0 151 150" id="director" xmlns="http://www.w3.org/2000/svg"><path d="M84.5 86c-26.148-4.614-35.795 11.247-37.39 20.625-.1.587.365 1.1.96 1.1h46.315L84.499 86zm-9-11c8.975 0 16.25-7.275 16.25-16.25S84.475 42.5 75.5 42.5s-16.25 7.275-16.25 16.25S66.525 75 75.5 75z" fill="#A9845B"/><path d="M108 94.5c0 1.04-.13 2.047-.39 3.022a12.136 12.136 0 01-1.495 3.673A12.902 12.902 0 0195 107.5c-3.347 0-6.37-1.268-8.645-3.348a11.97 11.97 0 01-2.47-2.957A12.743 12.743 0 0182 94.5c0-3.51 1.397-6.727 3.672-9.067A12.983 12.983 0 0195 81.5c3.835 0 7.312 1.658 9.652 4.323A12.949 12.949 0 01108 94.5z" fill="#F5F2EC" stroke="#A9845B" stroke-width="1.5" stroke-miterlimit="10" stroke-linecap="round" stroke-linejoin="round"/><path d="M99.843 94.435h-9.685" stroke="#A9845B" stroke-miterlimit="10" stroke-linecap="round" stroke-linejoin="round"/></svg><svg fill="none" viewBox="0 0 151 150" id="fire" xmlns="http://www.w3.org/2000/svg"><path clip-rule="evenodd" d="M86.64 40c-8.922 8.106-7.42 8.916-7.685 15.13-.165 3.884-1.747 5.446-2.908 6.071-1.779.957-4.777-.75-4.777-1.929-2.642 6.118-1.343 13.735 3.533 18.284 1.198 1.116 2.612 2.03 4.157 2.73.839-5.366 4.493-9.404 8.873-9.404 4.097 0 7.557 3.531 8.675 8.377a13.7 13.7 0 003.386-3.13c5.194-6.781 2.084-16.552-4.598-23.43C86.11 43.244 86.64 40 86.64 40z" stroke="#A9845B" stroke-linejoin="round"/><path fill-rule="evenodd" clip-rule="evenodd" d="M75.767 46C61.211 58.934 63.661 60.227 63.23 70.143c-.27 6.199-2.85 8.692-4.746 9.689-2.901 1.526-7.793-1.199-7.793-3.078-4.31 9.761-2.191 21.917 5.765 29.175 1.953 1.782 4.26 3.24 6.782 4.357 1.368-8.562 7.33-15.007 14.477-15.007 6.684 0 12.33 5.636 14.153 13.369 2.088-1.341 3.964-2.999 5.526-4.995 8.474-10.822 3.4-26.413-7.502-37.387C74.903 51.176 75.767 46 75.767 46z" fill="#A9845B"/></svg><svg fill="none" viewBox="0 0 28 26" id="left-arrow" xmlns="http://www.w3.org/2000/svg"><path d="M10.708 17.91l.397-.305-.397.304zm0-9.82l.397.305-.397-.304zm16.515 4.41H.777v1h26.446v-1zM.777 13v.5h.012a3.751 3.751 0 01.234.009c.166.009.411.027.718.064.615.074 1.475.222 2.448.519 1.95.594 4.328 1.775 6.122 4.12l.794-.607c-1.96-2.563-4.546-3.836-6.624-4.47a15.357 15.357 0 00-2.62-.555A12.105 12.105 0 00.8 12.5H.779v.5zm9.534 5.213c1.01 1.321 1.594 3.016 1.922 4.408a17.758 17.758 0 01.377 2.236 8.41 8.41 0 01.014.166v.009l.5-.032.498-.032v-.015l-.004-.04a15.074 15.074 0 00-.075-.691 18.715 18.715 0 00-.336-1.83c-.343-1.452-.968-3.303-2.102-4.787l-.794.608zM.777 13v.5h.025l.059-.001c.05-.002.123-.004.216-.01.186-.01.453-.03.784-.07.66-.079 1.58-.237 2.62-.554 2.078-.634 4.664-1.908 6.624-4.47l-.794-.608c-1.794 2.346-4.173 3.527-6.122 4.121-.973.297-1.833.445-2.448.519a11.199 11.199 0 01-.952.073H.777v.5zm10.328-4.605c1.134-1.484 1.759-3.335 2.102-4.787a18.718 18.718 0 00.398-2.371l.013-.15.003-.04.001-.01v-.005L13.123 1l-.499-.032v.009a3.36 3.36 0 01-.014.166 17.752 17.752 0 01-.376 2.236c-.33 1.392-.913 3.087-1.923 4.408l.794.608z" fill="#1B1B1B"/></svg><svg viewBox="0 0 24 24" id="plus" xmlns="http://www.w3.org/2000/svg"><path d="M11.46.12h1.08v23.76h-1.08z"/><path d="M23.88 11.46v1.08H.12v-1.08z"/></svg><svg fill="none" viewBox="0 0 151 150" id="profit" xmlns="http://www.w3.org/2000/svg"><path fill-rule="evenodd" clip-rule="evenodd" d="M76.394 40.801a22.205 22.205 0 00-5.156 3.353c-2.04 1.778-3.678 3.897-4.79 6.247a16.835 16.835 0 00-1.635 7.221c0 3.06.84 5.88 2.316 8.296l.001.002c3.6 5.92 11.064 9.77 19.794 9.77s16.195-3.85 19.794-9.77l.001-.002a15.794 15.794 0 002.317-8.296c0-.327-.01-.653-.029-.977-.283-4.854-2.669-9.244-6.397-12.526a21.731 21.731 0 00-1.572-1.237C97.21 40.15 92.31 38.5 86.924 38.5c-3.826 0-7.409.836-10.53 2.301zm32.642 23.93c-.304.68-.65 1.337-1.037 1.969-3.927 6.46-11.938 10.49-21.075 10.49-9.136 0-17.147-4.03-21.075-10.49a17.306 17.306 0 01-1.037-1.97v10.478c0 1.302.153 2.56.443 3.767 1.06 4.403 3.964 8.103 8.036 10.635a21.683 21.683 0 00.592.356c3.636 2.104 8.132 3.309 13.041 3.309 5.413 0 10.322-1.465 14.132-3.984a20.9 20.9 0 00.994-.7c4.317-3.236 6.986-7.93 6.986-13.383V64.73zM72.159 41.528c-5.379 3.764-8.847 9.548-8.847 16.093v30.601c0 11.483 10.673 20.622 23.612 20.622 12.939 0 23.612-9.14 23.612-20.622v-30.6c0-5.732-2.684-10.887-6.937-14.632l-.005-.004C99.304 39.277 93.43 37 86.924 37c-5.588 0-10.711 1.68-14.765 4.529zm36.877 40.809c-1.592 3.567-4.364 6.53-7.896 8.669a20.363 20.363 0 01-.427.252c-3.9 2.25-8.674 3.516-13.789 3.516-6.259 0-12.01-1.897-16.27-5.17-2.555-1.965-4.573-4.425-5.841-7.267v5.884c0 10.464 9.797 19.122 22.111 19.122 12.315 0 22.112-8.658 22.112-19.122v-5.884z" fill="#A9845B"/><ellipse cx="64.5" cy="87.624" rx="25" ry="25.5" fill="#A9845B"/><path d="M69.351 87.991h-10.36m5.179-5.181v10.362" stroke="#F5F2EC" stroke-width="1.5" stroke-miterlimit="10" stroke-linecap="round" stroke-linejoin="round"/></svg><svg fill="none" viewBox="0 0 28 26" id="right-arrow" xmlns="http://www.w3.org/2000/svg"><path d="M17.292 8.09l-.397.305.397-.304zm0 9.82l-.397-.305.397.304zM.777 13.5h26.446v-1H.777v1zm26.446-.5v-.5h-.012a3.72 3.72 0 01-.234-.009 11.114 11.114 0 01-.718-.064 14.373 14.373 0 01-2.448-.519c-1.95-.594-4.328-1.775-6.122-4.12l-.794.607c1.96 2.563 4.546 3.836 6.624 4.47 1.04.317 1.96.475 2.62.555a12.104 12.104 0 001.06.08h.023V13zm-9.534-5.213c-1.01-1.321-1.593-3.016-1.922-4.408a17.752 17.752 0 01-.377-2.236 8.428 8.428 0 01-.014-.166V.968l-.5.032-.498.032v.016l.004.04.013.149a18.718 18.718 0 00.399 2.372c.342 1.45.967 3.302 2.1 4.786l.795-.608zM27.223 13v-.5h-.025l-.059.001a12.104 12.104 0 00-1 .079c-.66.08-1.58.238-2.62.555-2.078.634-4.664 1.908-6.624 4.47l.794.608c1.794-2.346 4.173-3.527 6.122-4.121a14.373 14.373 0 012.448-.519 11.202 11.202 0 01.952-.073h.012V13zm-10.328 4.605c-1.134 1.484-1.759 3.335-2.102 4.787a18.715 18.715 0 00-.398 2.371l-.013.15-.003.04-.001.01v.005l.499.032.499.032v-.009a3.357 3.357 0 01.014-.166 17.758 17.758 0 01.376-2.236c.33-1.392.913-3.087 1.923-4.408l-.794-.608z" fill="#1B1B1B"/></svg><svg fill="none" viewBox="0 0 54 54" id="tg" xmlns="http://www.w3.org/2000/svg"><rect opacity=".1" width="54" height="54" rx="27" transform="matrix(-1 0 0 1 54 0)" fill="#909595"/><path d="M14.471 25.71l14.296-5.936c1.412-.619 6.197-2.597 6.197-2.597s2.21-.866 2.025 1.236c-.061.866-.552 3.896-1.043 7.173l-1.534 9.709s-.123 1.422-1.166 1.67c-1.043.247-2.76-.866-3.067-1.114-.246-.185-4.602-2.968-6.197-4.328-.43-.371-.92-1.113.06-1.98 2.21-2.04 4.848-4.575 6.443-6.183.737-.742 1.473-2.473-1.595-.37l-8.651 5.874s-.982.618-2.823.062c-1.84-.557-3.988-1.299-3.988-1.299s-1.472-.927 1.043-1.917z" fill="#F5F2EC"/></svg><svg fill="none" viewBox="0 0 151 150" id="tools" xmlns="http://www.w3.org/2000/svg"><path d="M86.333 80.153h9.182a.4.4 0 00.398-.4v-3.622a16.45 16.45 0 002.477-1.023l2.561 2.556a.398.398 0 00.565 0l6.494-6.493a.399.399 0 000-.565l-2.557-2.561a16.3 16.3 0 001.022-2.477h3.626a.398.398 0 00.399-.4v-9.18a.4.4 0 00-.399-.4h-3.624a16.416 16.416 0 00-1.023-2.477l2.557-2.562a.399.399 0 000-.565l-6.494-6.493a.397.397 0 00-.564 0l-2.561 2.557a16.324 16.324 0 00-2.477-1.023V41.4a.4.4 0 00-.4-.4H86.33a.4.4 0 00-.4.4v3.626a16.32 16.32 0 00-2.476 1.023l-2.557-2.56a.4.4 0 00-.565 0l-6.494 6.492a.4.4 0 000 .565l2.557 2.562c-.408.796-.75 1.625-1.023 2.477h-3.625a.4.4 0 00-.4.4v9.18a.4.4 0 00.4.4h3.632c.272.852.614 1.68 1.022 2.477l-2.56 2.561a.4.4 0 000 .565l6.493 6.493a.4.4 0 00.565 0l2.557-2.557a16.31 16.31 0 002.477 1.024v3.625a.4.4 0 00.4.4z" stroke="#A9845B"/><path d="M63.659 108.627h14.19a.618.618 0 00.616-.617v-5.598a25.11 25.11 0 003.828-1.582l3.958 3.952a.617.617 0 00.873 0l10.035-10.035a.617.617 0 000-.873l-3.951-3.959a25.15 25.15 0 001.58-3.828h5.603a.618.618 0 00.617-.617V71.28a.62.62 0 00-.617-.617h-5.6a25.303 25.303 0 00-1.58-3.829l3.95-3.958a.617.617 0 000-.873L87.127 51.969a.617.617 0 00-.873 0l-3.958 3.951a25.22 25.22 0 00-3.828-1.581v-5.603a.617.617 0 00-.617-.617H63.655a.617.617 0 00-.617.617v5.604a25.21 25.21 0 00-3.828 1.582l-3.952-3.958a.618.618 0 00-.873 0L44.349 61.999a.617.617 0 000 .873l3.952 3.959a25.304 25.304 0 00-1.581 3.828h-5.603a.617.617 0 00-.617.617v14.189a.618.618 0 00.617.617h5.613c.421 1.317.95 2.598 1.58 3.828l-3.957 3.96a.617.617 0 000 .872l10.035 10.035a.617.617 0 00.874 0l3.951-3.952a25.11 25.11 0 003.828 1.582v5.603a.618.618 0 00.618.617z" fill="#A9845B"/><circle cx="71.18" cy="78.799" r="7.67" fill="#F5F2EC"/></svg><svg fill="none" viewBox="0 0 55 54" id="wa" xmlns="http://www.w3.org/2000/svg"><rect opacity=".1" width="54" height="54" rx="27" transform="matrix(-1 0 0 1 54.5 0)" fill="#909595"/><path fill-rule="evenodd" clip-rule="evenodd" d="M34.223 29.542c-.318-.173-1.892-1.014-2.186-1.133-.293-.118-.51-.179-.74.134-.23.316-.882 1.02-1.078 1.227-.199.21-.389.228-.71.055-.318-.173-1.356-.556-2.559-1.701-.937-.893-1.549-1.974-1.726-2.305-.178-.332 0-.499.168-.654.153-.14.34-.367.511-.55.169-.182.23-.315.346-.525.116-.212.07-.4-.006-.568-.076-.164-.667-1.78-.912-2.436-.248-.656-.524-.559-.713-.568-.19-.006-.407-.042-.625-.048-.217-.01-.575.06-.884.37-.313.313-1.182 1.063-1.243 2.655-.061 1.591 1.05 3.17 1.203 3.393.156.221 2.118 3.669 5.381 5.087 3.263 1.419 3.281.987 3.878.954.6-.03 1.956-.71 2.26-1.455.3-.744.324-1.391.247-1.53-.076-.137-.29-.229-.609-.402h-.003zM28.239 14c-7.05 0-12.765 5.67-12.765 12.666 0 2.393.67 4.632 1.83 6.54L15 40l7.068-2.245a12.792 12.792 0 006.168 1.577C35.286 39.332 41 33.66 41 26.666S35.285 14 28.236 14h.003z" fill="#F5F2EC"/></svg></svg>